<svg xmlns="http://www.w3.org/2000/svg" version="1.1" xmlns:xlink="http://www.w3.org/1999/xlink" xmlns:svgjs="http://svgjs.dev/svgjs" width="128" height="128" viewBox="0 0 128 128"><g transform="matrix(0.5364583333333334,0,0,0.5364583333333334,29.666666666666657,12.5)"><svg viewBox="0 0 150 225" data-background-color="#ffffff" preserveAspectRatio="xMidYMid meet" height="192" width="128" xmlns="http://www.w3.org/2000/svg" xmlns:xlink="http://www.w3.org/1999/xlink"><g id="tight-bounds" transform="matrix(1,0,0,1,0,0)"><svg viewBox="0 0 150 225" height="225" width="150"><g><svg></svg></g><g><svg viewBox="0 0 150 225" height="225" width="150"><g><path d="M141.545 99v-16.5c0-8.25-7.486-15.001-16.636-15h-36.409c-5.937 0-11.069-3.45-13.5-8.456-2.43 5.004-7.563 8.455-13.5 8.456h-36.409c-9.15 0-16.636 6.751-16.636 15v16.5c0 5.937-3.45 11.069-8.455 13.5 5.004 2.43 8.455 7.563 8.455 13.5v16.5c0 8.25 7.486 15.001 16.636 15h36.409c5.937 0 11.069 3.45 13.5 8.456 2.43-5.004 7.563-8.455 13.5-8.456h36.409c9.15 0 16.636-6.751 16.636-15v-16.5c0-5.937 3.45-11.069 8.455-13.5-5.004-2.43-8.455-7.563-8.455-13.5z" fill="#ec9131" fill-rule="nonzero" stroke="none" stroke-width="1" stroke-linecap="butt" stroke-linejoin="miter" stroke-miterlimit="10" stroke-dasharray="" stroke-dashoffset="0" font-family="none" font-weight="none" font-size="none" text-anchor="none" style="mix-blend-mode: normal" data-fill-palette-color="tertiary"></path></g><g transform="matrix(1,0,0,1,47.19,84.05252148997134)"><svg viewBox="0 0 55.62 56.89495702005731" height="56.89495702005731" width="55.62"><g><svg viewBox="0 0 55.62 56.89495702005731" height="56.89495702005731" width="55.62"><g><svg viewBox="0 0 55.62 56.89495702005731" height="56.89495702005731" width="55.62"><g id="textblocktransform"><svg viewBox="0 0 55.62 56.89495702005731" height="56.89495702005731" width="55.62" id="textblock"><g><svg viewBox="0 0 55.62 56.89495702005731" height="56.89495702005731" width="55.62"><g transform="matrix(1,0,0,1,0,0)"><svg width="55.62" viewBox="2.4 -31.7 34.9 35.7" height="56.89495702005731" data-palette-color="#ffffff"><path d="M10.45 4L10.45 4Q5.4 4 3.45 1.7L3.45 1.7Q2.4 0.5 2.4-1L2.4-1Q2.4-4.6 7.8-8.85L7.8-8.85Q9.55-10.25 11.15-10.25L11.15-10.25Q11.55-10.25 11.55-10.1L11.55-10.1Q11.55-9.75 10.3-9.25L10.3-9.25Q8.15-8.35 6.6-5.95L6.6-5.95Q5-3.5 5-1.3L5-1.3Q5 2.75 11.4 2.75L11.4 2.75Q15.35 2.75 18.4 1.55L18.4 1.55Q25.1-1.05 29.1-5.2L29.1-5.2Q32.6-8.75 32.6-12L32.6-12Q32.6-15.95 27.8-15.95L27.8-15.95Q20.2-15.95 16.5-17.85L16.5-17.85Q13.45-19.4 13.45-21.95L13.45-21.95Q13.45-26.35 20.1-29.25L20.1-29.25Q25.5-31.7 30.4-31.7L30.4-31.7Q34.4-31.7 36.7-30.05L36.7-30.05Q37.3-29.7 37.3-29.05L37.3-29.05Q37.3-28.1 36.1-27.1L36.1-27.1Q34.95-26.1 34.4-26.2L34.4-26.2Q34.3-26.2 34.75-26.85L34.75-26.85Q35.4-27.65 35.4-28.3L35.4-28.3Q35.4-28.9 34.95-29.35L34.95-29.35Q33.6-30.8 30-30.8L30-30.8Q26-30.8 21.8-29.05L21.8-29.05Q17.4-27.15 16.45-24.6L16.45-24.6Q15.95-23.3 15.95-22.25L15.95-22.25Q15.95-17.8 28.4-17.8L28.4-17.8Q35.9-17.8 35.9-13.3L35.9-13.3Q35.9-9.5 31.05-4.65L31.05-4.65Q26.1 0.2 20.35 2.2L20.35 2.2Q15.2 4 10.45 4Z" opacity="1" transform="matrix(1,0,0,1,0,0)" fill="#ffffff" class="wordmark-text-0" data-fill-palette-color="quaternary" id="text-0"></path></svg></g></svg></g></svg></g></svg></g></svg></g></svg></g></svg></g><defs></defs></svg><rect width="150" height="225" fill="none" stroke="none" visibility="hidden"></rect></g></svg></g></svg>