<svg xmlns="http://www.w3.org/2000/svg" version="1.1" xmlns:xlink="http://www.w3.org/1999/xlink" xmlns:svgjs="http://svgjs.dev/svgjs" width="2000" height="1875" viewBox="0 0 2000 1875"><g transform="matrix(1,0,0,1,0,0)"><svg viewBox="0 0 384 360" data-background-color="#ffffff" preserveAspectRatio="xMidYMid meet" height="1875" width="2000" xmlns="http://www.w3.org/2000/svg" xmlns:xlink="http://www.w3.org/1999/xlink"><g id="tight-bounds" transform="matrix(1,0,0,1,0,0)"><svg viewBox="0 0 384 360" height="360" width="384"><g><svg></svg></g><g><svg viewBox="0 0 384 360" height="360" width="384"><g><path d="M362.354 145.441v-42.24c0-21.12-19.163-38.402-42.587-38.402h-93.208c-15.198 0-28.337-8.831-34.559-21.646-6.222 12.81-19.36 21.646-34.559 21.646h-93.208c-23.424 0-42.587 17.282-42.587 38.402v42.24c0 15.198-8.831 28.337-21.646 34.559 12.81 6.222 21.646 19.36 21.646 34.559v42.24c0 21.12 19.163 38.402 42.587 38.402h93.208c15.198 0 28.337 8.831 34.559 21.646 6.222-12.81 19.36-21.646 34.559-21.646h93.208c23.424 0 42.587-17.282 42.587-38.402v-42.24c0-15.198 8.831-28.337 21.646-34.559-12.81-6.222-21.646-19.36-21.646-34.559z" fill="#000000" fill-rule="nonzero" stroke="none" stroke-width="1" stroke-linecap="butt" stroke-linejoin="miter" stroke-miterlimit="10" stroke-dasharray="" stroke-dashoffset="0" font-family="none" font-weight="none" font-size="none" text-anchor="none" style="mix-blend-mode: normal" data-fill-palette-color="tertiary"></path></g><g transform="matrix(1,0,0,1,132.37846913845766,99)"><svg viewBox="0 0 119.24306172308471 162" height="162" width="119.24306172308471"><g><svg viewBox="0 0 119.24306172308471 162" height="162" width="119.24306172308471"><g><svg viewBox="0 0 157.39102285714281 213.8266607248731" height="162" width="119.24306172308471"><g><svg viewBox="0 0 157.39102285714281 213.8266607248731" height="213.8266607248731" width="157.39102285714281"><g id="textblocktransform"><svg viewBox="0 0 157.39102285714281 213.8266607248731" height="213.8266607248731" width="157.39102285714281" id="textblock"><g><svg viewBox="0 0 157.39102285714281 160.99884" height="160.99884" width="157.39102285714281"><g transform="matrix(1,0,0,1,0,0)"><svg width="157.39102285714281" viewBox="2.4 -31.7 34.9 35.7" height="160.99884" data-palette-color="#ffffff"><path d="M10.45 4L10.45 4Q5.4 4 3.45 1.7L3.45 1.7Q2.4 0.5 2.4-1L2.4-1Q2.4-4.6 7.8-8.85L7.8-8.85Q9.55-10.25 11.15-10.25L11.15-10.25Q11.55-10.25 11.55-10.1L11.55-10.1Q11.55-9.75 10.3-9.25L10.3-9.25Q8.15-8.35 6.6-5.95L6.6-5.95Q5-3.5 5-1.3L5-1.3Q5 2.75 11.4 2.75L11.4 2.75Q15.35 2.75 18.4 1.55L18.4 1.55Q25.1-1.05 29.1-5.2L29.1-5.2Q32.6-8.75 32.6-12L32.6-12Q32.6-15.95 27.8-15.95L27.8-15.95Q20.2-15.95 16.5-17.85L16.5-17.85Q13.45-19.4 13.45-21.95L13.45-21.95Q13.45-26.35 20.1-29.25L20.1-29.25Q25.5-31.7 30.4-31.7L30.4-31.7Q34.4-31.7 36.7-30.05L36.7-30.05Q37.3-29.7 37.3-29.05L37.3-29.05Q37.3-28.1 36.1-27.1L36.1-27.1Q34.95-26.1 34.4-26.2L34.4-26.2Q34.3-26.2 34.75-26.85L34.75-26.85Q35.4-27.65 35.4-28.3L35.4-28.3Q35.4-28.9 34.95-29.35L34.95-29.35Q33.6-30.8 30-30.8L30-30.8Q26-30.8 21.8-29.05L21.8-29.05Q17.4-27.15 16.45-24.6L16.45-24.6Q15.95-23.3 15.95-22.25L15.95-22.25Q15.95-17.8 28.4-17.8L28.4-17.8Q35.9-17.8 35.9-13.3L35.9-13.3Q35.9-9.5 31.05-4.65L31.05-4.65Q26.1 0.2 20.35 2.2L20.35 2.2Q15.2 4 10.45 4Z" opacity="1" transform="matrix(1,0,0,1,0,0)" fill="#ffffff" class="wordmark-text-0" data-fill-palette-color="quaternary" id="text-0"></path></svg></g></svg></g><g transform="matrix(1,0,0,1,0,199.00680215184002)"><svg viewBox="0 0 157.39102285714281 14.819858573033105" height="14.819858573033105" width="157.39102285714281"><g transform="matrix(1,0,0,1,0,0)"><svg width="157.39102285714281" viewBox="3.9 -40.3 534.15 50.3" height="14.819858573033105" data-palette-color="#ffffff"><path d="M16.3-30.6Q21.9-30.6 24.63-26.85 27.35-23.1 27.35-15.05L27.35-15.05Q27.35-7.45 24.43-3.53 21.5 0.4 16.05 0.4L16.05 0.4Q14 0.4 12.13-0.6 10.25-1.6 9.25-3.25L9.25-3.25 9.25 2.5 9.6 10 3.9 10 4.25 2.5 4.25-22.55 3.9-30 8.6-30 8.85-28.35Q11.65-30.6 16.3-30.6L16.3-30.6ZM15.5-4.4Q19.05-4.4 20.6-6.85 22.15-9.3 22.15-15.05L22.15-15.05Q22.15-19.25 21.48-21.55 20.8-23.85 19.28-24.8 17.75-25.75 15.05-25.75L15.05-25.75Q11.3-25.75 9.25-24.7L9.25-24.7 9.25-6.55Q11.25-4.4 15.5-4.4L15.5-4.4ZM33.05-8.35Q33.05-11.3 34.37-13.63 35.7-15.95 38.02-17.25 40.35-18.55 43.2-18.55L43.2-18.55Q45.45-18.55 47.67-18.1 49.9-17.65 51.2-16.9L51.2-16.9 51.2-19.85Q51.2-22.9 49.57-24.35 47.95-25.8 44.55-25.8L44.55-25.8Q41.5-25.8 39.07-24.68 36.65-23.55 35.3-21.5L35.3-21.5 34.75-21.6 35.45-27.25Q37.15-28.9 39.72-29.8 42.3-30.7 45.3-30.7L45.3-30.7Q50.45-30.7 53.32-28.18 56.2-25.65 56.2-20.95L56.2-20.95 56.2-7.45 56.55 0 51.35 0 51.2-3Q50.3-1.5 47.8-0.35 45.3 0.8 42.7 0.8L42.7 0.8Q38.15 0.8 35.6-1.63 33.05-4.05 33.05-8.35L33.05-8.35ZM38.25-8.8Q38.25-6.1 39.42-4.95 40.6-3.8 43.5-3.8L43.5-3.8Q45.45-3.8 47.82-4.65 50.2-5.5 51.2-6.6L51.2-6.6 51.2-12.25Q50-13 47.85-13.5 45.7-14 43.5-14L43.5-14Q40.75-14 39.5-12.7 38.25-11.4 38.25-8.8L38.25-8.8ZM73.95 0.5Q70.7 0.5 68.37-0.4 66.05-1.3 63.85-3.45L63.85-3.45 63.15-8.15 63.85-8.35Q68.7-4.45 73.7-4.45L73.7-4.45Q79.34-4.45 79.34-7.6L79.34-7.6Q79.34-8.75 78.75-9.53 78.15-10.3 76.59-11.08 75.05-11.85 71.95-12.95L71.95-12.95Q68.7-14.1 66.92-15.25 65.15-16.4 64.42-17.93 63.7-19.45 63.7-21.75L63.7-21.75Q63.7-26 66.37-28.33 69.05-30.65 74.05-30.65L74.05-30.65Q77.09-30.65 79.42-29.93 81.75-29.2 83.65-27.65L83.65-27.65 82.8-22.95 82.05-22.75Q81-24.1 78.77-24.93 76.55-25.75 74.25-25.75L74.25-25.75Q71.59-25.75 70.22-24.85 68.84-23.95 68.84-22.3L68.84-22.3Q68.84-21.05 69.45-20.25 70.05-19.45 71.55-18.73 73.05-18 76.05-17L76.05-17Q80.7-15.5 82.59-13.5 84.5-11.5 84.5-8.05L84.5-8.05Q84.5-3.9 81.82-1.7 79.15 0.5 73.95 0.5L73.95 0.5ZM101.34 0.5Q98.09 0.5 95.77-0.4 93.44-1.3 91.24-3.45L91.24-3.45 90.54-8.15 91.24-8.35Q96.09-4.45 101.09-4.45L101.09-4.45Q106.74-4.45 106.74-7.6L106.74-7.6Q106.74-8.75 106.14-9.53 105.54-10.3 103.99-11.08 102.44-11.85 99.34-12.95L99.34-12.95Q96.09-14.1 94.32-15.25 92.54-16.4 91.82-17.93 91.09-19.45 91.09-21.75L91.09-21.75Q91.09-26 93.77-28.33 96.44-30.65 101.44-30.65L101.44-30.65Q104.49-30.65 106.82-29.93 109.14-29.2 111.04-27.65L111.04-27.65 110.19-22.95 109.44-22.75Q108.39-24.1 106.17-24.93 103.94-25.75 101.64-25.75L101.64-25.75Q98.99-25.75 97.62-24.85 96.24-23.95 96.24-22.3L96.24-22.3Q96.24-21.05 96.84-20.25 97.44-19.45 98.94-18.73 100.44-18 103.44-17L103.44-17Q108.09-15.5 109.99-13.5 111.89-11.5 111.89-8.05L111.89-8.05Q111.89-3.9 109.22-1.7 106.54 0.5 101.34 0.5L101.34 0.5ZM121.69-34.55Q120.24-34.55 119.24-35.35 118.24-36.15 118.24-37.4L118.24-37.4Q118.24-38.65 119.24-39.48 120.24-40.3 121.69-40.3L121.69-40.3Q123.09-40.3 124.09-39.48 125.09-38.65 125.09-37.4L125.09-37.4Q125.09-36.15 124.09-35.35 123.09-34.55 121.69-34.55L121.69-34.55ZM118.84 0L119.14-7.5 119.14-22.75 118.84-30 124.49-30 124.14-22.75 124.14-7.5 124.49 0 118.84 0ZM143.89 0.8Q137.44 0.8 134.41-3.13 131.39-7.05 131.39-15.05L131.39-15.05Q131.39-23.05 134.41-26.93 137.44-30.8 143.89-30.8L143.89-30.8Q150.34-30.8 153.36-26.93 156.39-23.05 156.39-15.05L156.39-15.05Q156.39-7.05 153.36-3.13 150.34 0.8 143.89 0.8L143.89 0.8ZM143.89-4.1Q146.74-4.1 148.31-5.1 149.89-6.1 150.54-8.43 151.19-10.75 151.19-15L151.19-15Q151.19-19.25 150.54-21.58 149.89-23.9 148.31-24.9 146.74-25.9 143.89-25.9L143.89-25.9Q141.04-25.9 139.46-24.9 137.89-23.9 137.24-21.58 136.59-19.25 136.59-15L136.59-15Q136.59-10.75 137.24-8.43 137.89-6.1 139.46-5.1 141.04-4.1 143.89-4.1L143.89-4.1ZM179.99 0L180.34-7.5 180.34-20.7Q180.34-25.8 175.79-25.8L175.79-25.8Q173.89-25.8 171.79-24.73 169.69-23.65 168.59-21.9L168.59-21.9 168.59-7.5 168.94 0 163.24 0 163.59-7.5 163.59-22.75 163.24-30 167.59-30 168.59-26Q169.94-28.05 172.41-29.2 174.89-30.35 177.74-30.35L177.74-30.35Q181.29-30.35 183.31-28.13 185.34-25.9 185.34-21.85L185.34-21.85 185.34-7.5 185.69 0 179.99 0ZM207.38-34.55Q205.93-34.55 204.93-35.35 203.93-36.15 203.93-37.4L203.93-37.4Q203.93-38.65 204.93-39.48 205.93-40.3 207.38-40.3L207.38-40.3Q208.78-40.3 209.78-39.48 210.78-38.65 210.78-37.4L210.78-37.4Q210.78-36.15 209.78-35.35 208.78-34.55 207.38-34.55L207.38-34.55ZM204.53 0L204.83-7.5 204.83-22.75 204.53-30 210.18-30 209.83-22.75 209.83-7.5 210.18 0 204.53 0ZM234.73 0L235.08-7.5 235.08-20.7Q235.08-25.8 230.53-25.8L230.53-25.8Q228.63-25.8 226.53-24.73 224.43-23.65 223.33-21.9L223.33-21.9 223.33-7.5 223.68 0 217.98 0 218.33-7.5 218.33-22.75 217.98-30 222.33-30 223.33-26Q224.68-28.05 227.15-29.2 229.63-30.35 232.48-30.35L232.48-30.35Q236.03-30.35 238.05-28.13 240.08-25.9 240.08-21.85L240.08-21.85 240.08-7.5 240.43 0 234.73 0ZM247.03-25.3L247.03-28.55 250.23-30 251.73-36.25 255.23-36.25 255.23-30 263.78-30 263.78-25.3 255.23-25.3 255.23-8.8Q255.23-6.45 256.08-5.38 256.93-4.3 258.73-4.3L258.73-4.3Q260.43-4.3 261.98-5 263.53-5.7 264.28-6.8L264.28-6.8 265.03-6.5 263.93-2.2Q261.13 0.6 257.63 0.6L257.63 0.6Q253.78 0.6 252-1.78 250.23-4.15 250.23-9.6L250.23-9.6 250.23-25.3 247.03-25.3ZM281.72 0.8Q275.27 0.8 272.25-3.13 269.22-7.05 269.22-15.05L269.22-15.05Q269.22-23.05 272.25-26.93 275.27-30.8 281.72-30.8L281.72-30.8Q288.17-30.8 291.2-26.93 294.22-23.05 294.22-15.05L294.22-15.05Q294.22-7.05 291.2-3.13 288.17 0.8 281.72 0.8L281.72 0.8ZM281.72-4.1Q284.57-4.1 286.15-5.1 287.72-6.1 288.37-8.43 289.02-10.75 289.02-15L289.02-15Q289.02-19.25 288.37-21.58 287.72-23.9 286.15-24.9 284.57-25.9 281.72-25.9L281.72-25.9Q278.87-25.9 277.3-24.9 275.72-23.9 275.07-21.58 274.42-19.25 274.42-15L274.42-15Q274.42-10.75 275.07-8.43 275.72-6.1 277.3-5.1 278.87-4.1 281.72-4.1L281.72-4.1ZM323.52 0.8Q311.52 0.8 311.52-14.75L311.52-14.75Q311.52-22.4 314.59-26.5 317.67-30.6 323.67-30.6L323.67-30.6Q326.82-30.6 328.69-30.08 330.57-29.55 332.32-28.25L332.32-28.25 331.52-23.8 330.72-23.45Q329.52-24.65 328.02-25.18 326.52-25.7 324.27-25.7L324.27-25.7Q320.27-25.7 318.49-23.1 316.72-20.5 316.72-14.75L316.72-14.75Q316.72-10.85 317.47-8.55 318.22-6.25 319.92-5.2 321.62-4.15 324.52-4.15L324.52-4.15Q327.07-4.15 328.62-4.7 330.17-5.25 331.92-6.7L331.92-6.7 332.77-6.3 331.67-1.85Q329.72-0.35 327.97 0.23 326.22 0.8 323.52 0.8L323.52 0.8ZM351.27-30.35Q354.87-30.35 356.27-29.65L356.27-29.65 355.47-25.25 354.82-24.8Q354.22-25.25 352.87-25.55 351.52-25.85 350.12-25.85L350.12-25.85Q346.42-25.85 344.32-22.8L344.32-22.8 344.32-7.5 344.67 0 338.97 0 339.32-7.5 339.32-22.75 338.97-30 343.32-30 344.22-26.6Q345.47-28.4 347.32-29.38 349.17-30.35 351.27-30.35L351.27-30.35ZM372.51 0.6Q365.86 0.6 362.99-3.33 360.11-7.25 360.11-15.05L360.11-15.05Q360.11-22.65 363.16-26.73 366.21-30.8 372.51-30.8L372.51-30.8Q378.46-30.8 381.34-27.68 384.21-24.55 384.71-17.55L384.71-17.55 383.46-12.75 365.41-12.75Q365.51-9.65 366.29-7.83 367.06-6 368.76-5.1 370.46-4.2 373.46-4.2L373.46-4.2Q376.51-4.2 378.94-4.88 381.36-5.55 383.01-6.75L383.01-6.75 383.86-6.35 382.76-1.95Q380.91-0.6 378.56 0 376.21 0.6 372.51 0.6L372.51 0.6ZM365.36-16.95L379.51-16.95Q379.51-21.75 377.94-23.83 376.36-25.9 372.71-25.9L372.71-25.9Q370.06-25.9 368.49-25.03 366.91-24.15 366.19-22.2 365.46-20.25 365.36-16.95L365.36-16.95ZM389.91-8.35Q389.91-11.3 391.24-13.63 392.56-15.95 394.89-17.25 397.21-18.55 400.06-18.55L400.06-18.55Q402.31-18.55 404.54-18.1 406.76-17.65 408.06-16.9L408.06-16.9 408.06-19.85Q408.06-22.9 406.44-24.35 404.81-25.8 401.41-25.8L401.41-25.8Q398.36-25.8 395.94-24.68 393.51-23.55 392.16-21.5L392.16-21.5 391.61-21.6 392.31-27.25Q394.01-28.9 396.59-29.8 399.16-30.7 402.16-30.7L402.16-30.7Q407.31-30.7 410.19-28.18 413.06-25.65 413.06-20.95L413.06-20.95 413.06-7.45 413.41 0 408.21 0 408.06-3Q407.16-1.5 404.66-0.35 402.16 0.8 399.56 0.8L399.56 0.8Q395.01 0.8 392.46-1.63 389.91-4.05 389.91-8.35L389.91-8.35ZM395.11-8.8Q395.11-6.1 396.29-4.95 397.46-3.8 400.36-3.8L400.36-3.8Q402.31-3.8 404.69-4.65 407.06-5.5 408.06-6.6L408.06-6.6 408.06-12.25Q406.86-13 404.71-13.5 402.56-14 400.36-14L400.36-14Q397.61-14 396.36-12.7 395.11-11.4 395.11-8.8L395.11-8.8ZM420.01-25.3L420.01-28.55 423.21-30 424.71-36.25 428.21-36.25 428.21-30 436.76-30 436.76-25.3 428.21-25.3 428.21-8.8Q428.21-6.45 429.06-5.38 429.91-4.3 431.71-4.3L431.71-4.3Q433.41-4.3 434.96-5 436.51-5.7 437.26-6.8L437.26-6.8 438.01-6.5 436.91-2.2Q434.11 0.6 430.61 0.6L430.61 0.6Q426.76 0.6 424.98-1.78 423.21-4.15 423.21-9.6L423.21-9.6 423.21-25.3 420.01-25.3ZM446.11-34.55Q444.66-34.55 443.66-35.35 442.66-36.15 442.66-37.4L442.66-37.4Q442.66-38.65 443.66-39.48 444.66-40.3 446.11-40.3L446.11-40.3Q447.51-40.3 448.51-39.48 449.51-38.65 449.51-37.4L449.51-37.4Q449.51-36.15 448.51-35.35 447.51-34.55 446.11-34.55L446.11-34.55ZM443.26 0L443.56-7.5 443.56-22.75 443.26-30 448.91-30 448.56-22.75 448.56-7.5 448.91 0 443.26 0ZM468.3 0.8Q461.85 0.8 458.83-3.13 455.8-7.05 455.8-15.05L455.8-15.05Q455.8-23.05 458.83-26.93 461.85-30.8 468.3-30.8L468.3-30.8Q474.75-30.8 477.78-26.93 480.8-23.05 480.8-15.05L480.8-15.05Q480.8-7.05 477.78-3.13 474.75 0.8 468.3 0.8L468.3 0.8ZM468.3-4.1Q471.15-4.1 472.73-5.1 474.3-6.1 474.95-8.43 475.6-10.75 475.6-15L475.6-15Q475.6-19.25 474.95-21.58 474.3-23.9 472.73-24.9 471.15-25.9 468.3-25.9L468.3-25.9Q465.45-25.9 463.88-24.9 462.3-23.9 461.65-21.58 461-19.25 461-15L461-15Q461-10.75 461.65-8.43 462.3-6.1 463.88-5.1 465.45-4.1 468.3-4.1L468.3-4.1ZM504.4 0L504.75-7.5 504.75-20.7Q504.75-25.8 500.2-25.8L500.2-25.8Q498.3-25.8 496.2-24.73 494.1-23.65 493-21.9L493-21.9 493-7.5 493.35 0 487.65 0 488-7.5 488-22.75 487.65-30 492-30 493-26Q494.35-28.05 496.83-29.2 499.3-30.35 502.15-30.35L502.15-30.35Q505.7-30.35 507.73-28.13 509.75-25.9 509.75-21.85L509.75-21.85 509.75-7.5 510.1 0 504.4 0ZM527.5 0.5Q524.25 0.5 521.92-0.4 519.6-1.3 517.4-3.45L517.4-3.45 516.7-8.15 517.4-8.35Q522.25-4.45 527.25-4.45L527.25-4.45Q532.9-4.45 532.9-7.6L532.9-7.6Q532.9-8.75 532.3-9.53 531.7-10.3 530.15-11.08 528.6-11.85 525.5-12.95L525.5-12.95Q522.25-14.1 520.47-15.25 518.7-16.4 517.97-17.93 517.25-19.45 517.25-21.75L517.25-21.75Q517.25-26 519.92-28.33 522.6-30.65 527.6-30.65L527.6-30.65Q530.65-30.65 532.97-29.93 535.3-29.2 537.2-27.65L537.2-27.65 536.35-22.95 535.6-22.75Q534.55-24.1 532.32-24.93 530.1-25.75 527.8-25.75L527.8-25.75Q525.15-25.75 523.77-24.85 522.4-23.95 522.4-22.3L522.4-22.3Q522.4-21.05 523-20.25 523.6-19.45 525.1-18.73 526.6-18 529.6-17L529.6-17Q534.25-15.5 536.15-13.5 538.05-11.5 538.05-8.05L538.05-8.05Q538.05-3.9 535.37-1.7 532.7 0.5 527.5 0.5L527.5 0.5Z" opacity="1" transform="matrix(1,0,0,1,0,0)" fill="#ffffff" class="slogan-text-1" data-fill-palette-color="quaternary" id="text-1"></path></svg></g></svg></g></svg></g></svg></g></svg></g></svg></g></svg></g></svg></g><defs></defs></svg><rect width="384" height="360" fill="none" stroke="none" visibility="hidden"></rect></g></svg></g></svg>